<?xml version="1.0" encoding="utf-8"?><svg viewBox="0 0 34 28" xmlns="http://www.w3.org/2000/svg" xmlns:xlink="http://www.w3.org/1999/xlink"><style>:root>svg{display:none}:root>svg:target{display:block}</style><svg viewBox="0 0 28 28" id="facebook" xmlns="http://www.w3.org/2000/svg"><path d="M27.4 5.11C27.4 2.714 25.286.6 22.89.6H4.71C2.314.6.2 2.714.2 5.11v18.18c0 2.396 2.114 4.51 4.51 4.51h9.16V17.512h-3.382v-4.51h3.383V11.17c0-3.1 2.254-5.778 5.073-5.778h3.664v4.51h-3.664c-.423 0-.846.422-.846 1.268v1.832h4.51v4.51h-4.51V27.8h4.792c2.396 0 4.51-2.114 4.51-4.51V5.11z"/></svg><svg viewBox="0 0 28 28" id="instagram" xmlns="http://www.w3.org/2000/svg"><path d="M23.53.2H4.07C1.875.2.2 1.874.2 4.07v19.46c0 2.196 1.674 3.87 3.87 3.87h19.46c2.196 0 3.87-1.674 3.87-3.87V4.07C27.4 1.875 25.726.2 23.53.2zM13.8 21.96c4.498 0 8.16-3.557 8.16-7.846 0-.732-.105-1.57-.314-2.197h2.302v11.09c0 .522-.419 1.045-1.047 1.045H4.698a1.048 1.048 0 01-1.046-1.046V11.812h2.406a7.963 7.963 0 00-.313 2.197C5.64 18.403 9.302 21.96 13.8 21.96zm0-3.139c-2.93 0-5.23-2.301-5.23-5.126 0-2.824 2.3-5.126 5.23-5.126 2.93 0 5.23 2.302 5.23 5.126 0 2.93-2.3 5.127-5.23 5.127zM23.843 7.629c0 .627-.523 1.15-1.15 1.15h-2.93c-.628 0-1.15-.523-1.15-1.15V4.803c0-.628.522-1.15 1.15-1.15h2.93c.627 0 1.15.522 1.15 1.15v2.825z"/></svg><svg viewBox="0 0 32 26" id="twitter" xmlns="http://www.w3.org/2000/svg"><path d="M31.96 3.84c-1.12.48-2.4.8-3.68.96 1.28-.8 2.4-2.08 2.88-3.52-1.28.8-2.56 1.28-4.16 1.6C25.88 1.6 24.12.8 22.36.8c-3.52 0-6.4 2.88-6.4 6.4 0 .48 0 .96.16 1.44-5.28-.32-10.08-2.88-13.28-6.72-.48.96-.8 2.08-.8 3.2 0 2.24 1.12 4.16 2.88 5.28-1.12 0-2.08-.32-2.88-.8 0 3.04 2.24 5.76 5.12 6.24-.48.16-1.12.16-1.76.16-.48 0-.8 0-1.28-.16.8 2.56 3.2 4.48 6.08 4.48-2.24 1.76-4.96 2.72-8 2.72-.48 0-.96 0-1.6-.16 2.88 1.76 6.24 2.88 9.92 2.88 11.84 0 18.24-9.76 18.24-18.24v-.8c1.28-.48 2.4-1.6 3.2-2.88z"/></svg><svg viewBox="0 0 34 21" id="vk" xmlns="http://www.w3.org/2000/svg"><path d="M33.69 18.184c0-.132-.133-.132-.133-.265-.531-1.063-1.727-2.391-3.32-3.853-.798-.664-1.196-1.195-1.462-1.46-.399-.532-.399-.93-.266-1.462.133-.398.664-1.063 1.594-2.258.532-.664.797-1.063 1.196-1.461 1.992-2.657 2.922-4.384 2.657-5.181l-.133-.133c-.133-.133-.266-.265-.532-.265-.265-.133-.664-.133-1.062 0H26.25l-.133.132c-.133.133-.133.133-.133.266-.531 1.461-1.195 2.657-1.86 3.985-.398.664-.796 1.328-1.195 1.86-.398.531-.664.93-.93 1.195-.265.266-.531.399-.664.665-.133.132-.398.265-.398.132-.133 0-.266 0-.266-.132l-.399-.399c-.133-.133-.133-.398-.265-.664v-.664-.797-.797-1.462-1.195-.93-.797c0-.133-.133-.399-.133-.531l-.399-.399c-.133-.133-.398-.133-.531-.266-.664-.132-1.461-.265-2.391-.265-2.125 0-3.587.133-4.118.398-.266.133-.531.266-.664.532-.266.265-.266.398-.133.398.664.133 1.196.399 1.461.797l.133.266c.133.133.133.398.266.797.133.398.133.797.133 1.328v2.126c0 .664-.133 1.062-.133 1.46 0 .4-.133.665-.266.798-.133.266-.133.398-.266.398 0 0 0 .133-.133.133-.132 0-.265.133-.53.133-.134 0-.4-.133-.532-.266a1.6 1.6 0 01-.664-.664c-.266-.265-.532-.664-.797-1.195-.266-.532-.665-1.063-.93-1.86l-.266-.531a18.791 18.791 0 01-.664-1.462c-.266-.664-.532-1.195-.797-1.86a1.834 1.834 0 00-.399-.53h-.133s-.132-.133-.265-.133-.266-.133-.399-.133H1.676c-.531 0-.797.132-.93.265l-.133.133v.266c0 .133 0 .266.133.531.665 1.594 1.462 3.188 2.259 4.782.797 1.462 1.594 2.79 2.125 3.72.664.93 1.195 1.86 1.86 2.656.664.797 1.062 1.329 1.195 1.595l.532.53.398.4c.266.265.664.664 1.196 1.062.53.399 1.195.797 1.86 1.196.664.398 1.46.664 2.258.93.93.265 1.726.398 2.523.265h1.993c.398 0 .664-.133.93-.398l.133-.133c0-.133.133-.133.133-.266v-.531c0-.532 0-.93.132-1.329.133-.398.133-.664.266-.93.133-.265.266-.398.398-.53l.266-.266h.133c.266-.133.664 0 .93.265.398.266.797.664 1.063 1.063.265.398.664.797 1.195 1.328.531.532.93.93 1.196 1.063l.398.266c.266.133.532.265.93.398.399.133.664.133.93.133l4.516-.133c.399 0 .797-.133 1.063-.265.266-.133.398-.266.398-.532v-.531c-.265-.266-.265-.399-.265-.532z"/></svg></svg>